<svg width="36" height="36" viewBox="0 0 36 36" fill="none" xmlns="http://www.w3.org/2000/svg">
<g style="mix-blend-mode:multiply">
<rect x="2" y="2" width="32" height="32" rx="16" fill="#F4EBFF"/>
<rect x="2" y="2" width="32" height="32" rx="16" stroke="#F9F5FF" stroke-width="4"/>
<path d="M24 23.333V13.9997C24 13.2643 23.402 12.6663 22.6667 12.6663H21.3333V11.333H20V12.6663H16V11.333H14.6667V12.6663H13.3333C12.598 12.6663 12 13.2643 12 13.9997V23.333C12 24.0683 12.598 24.6663 13.3333 24.6663H22.6667C23.402 24.6663 24 24.0683 24 23.333ZM16 21.9997H14.6667V20.6663H16V21.9997ZM16 19.333H14.6667V17.9997H16V19.333ZM18.6667 21.9997H17.3333V20.6663H18.6667V21.9997ZM18.6667 19.333H17.3333V17.9997H18.6667V19.333ZM21.3333 21.9997H20V20.6663H21.3333V21.9997ZM21.3333 19.333H20V17.9997H21.3333V19.333ZM22.6667 15.9997H13.3333V14.6663H22.6667V15.9997Z" fill="#7F56D9"/>
</g>
</svg>
